# xmcd CD database file
#
# Track frame offsets:
#	150
#	15228
#	40268
#	60816
#	87801
#	123060
#	145470
#	167566
#	189579
#	206074
#	226403
#	248514
#	262254
#
# Disc length: 3767 seconds
#
# Revision: 0
# Processed by: cddbd v1.5.2PL0 Copyright (c) Steve Scherf et al.
# Submitted via: CDex 1.51
#
DISCID=a30eb50d
DTITLE=Otis Grand - Blues '65
DYEAR=2013
DGENRE=Blues
TTITLE0=Pretend
TTITLE1=Who Will The Next Fool Be
TTITLE2=Bad News Blues On TV
TTITLE3=Rumba Conga Twist
TTITLE4=Do You Remember When
TTITLE5=I Washed My Hands In Muddy Water
TTITLE6=Midnight Blues
TTITLE7=Please Don`t Leave
TTITLE8=In Your Backyard
TTITLE9=The Shag Shuffle
TTITLE10=Warning Blues
TTITLE11=These Days Are Gone
TTITLE12=Baby Please Don`t Tease
EXTD=YEAR: 2013
EXTT0=
EXTT1=
EXTT2=
EXTT3=
EXTT4=
EXTT5=
EXTT6=
EXTT7=
EXTT8=
EXTT9=
EXTT10=
EXTT11=
EXTT12=
PLAYORDER=
